# xmcd
#
# Track frame offsets:
# 150
# 24864
# 40097
# 54662
# 78177
# 99429
# 128545
# 164775
# 177904
# 190735
# 208609
# 229520
# 248111
# 265078
# 307201
# 330177
# 349168
#
# Disc length: 4737 seconds
#
#
# Revision: 1
# Processed by: cddbd v1.5.1PL2 Copyright (c) Steve Scherf et al.
# Submitted via: FreeRIP 2.941
#
DISCID=dc127f11
DTITLE=Stevie Ray Vaughan and Double Trouble - Steamboat 1874
DYEAR=1900
DGENRE=blues
TTITLE0=In The Open
TTITLE1=Slide Thing
TTITLE2=They Call Me Guitar Hurricane
TTITLE3=The Sky Is Crying
TTITLE4=I'm Leaving You (Commit A Crime)
TTITLE5=All Your Love I Miss Loving
TTITLE6=Tin Pan Alley
TTITLE7=Love Struck Baby
TTITLE8=Tell Me
TTITLE9=Shake For Me
TTITLE10=Little Wing
TTITLE11=Collins Shuffle
TTITLE12=I'm Crying
TTITLE13=Texas Flood
TTITLE14=I Tried Pretty Baby
TTITLE15=Hideaway
TTITLE16=Rude Mood - Fades out after 1:21
EXTD=Live at the Steamboat 1874
EXTT0=
EXTT1=
EXTT2=
EXTT3=
EXTT4=
EXTT5=
EXTT6=
EXTT7=
EXTT8=
EXTT9=
EXTT10=
EXTT11=
EXTT12=
EXTT13=
EXTT14=
EXTT15=
EXTT16=
PLAYORDER=
